HIERARCHY
ROOT root
{
	OFFSET	0	13.1	24.9
	CHANNELS 6  Xposition Yposition Zposition Xrotation Yrotation Zrotation
	JOINT spine_1
	{
		OFFSET	0	9.99999	0
		CHANNELS 3  Xrotation Yrotation Zrotation
		JOINT spine_2
		{
			OFFSET	0	112	-10
			CHANNELS 3  Xrotation Yrotation Zrotation
			JOINT spine_3
			{
				OFFSET	0	206.5	19.3
				CHANNELS 3  Xrotation Yrotation Zrotation
				JOINT spine_4
				{
					OFFSET	0	110.4	14.6
					CHANNELS 3  Xrotation Yrotation Zrotation
					JOINT neck_1
					{
						OFFSET	0	71.8	-50.3
						CHANNELS 3  Xrotation Yrotation Zrotation
						JOINT neck_2
						{
							OFFSET	0	86.2	-25.8
							CHANNELS 3  Xrotation Yrotation Zrotation
							JOINT head_ee
							{
								OFFSET	0	179.8	-8.7
								CHANNELS 3  Xrotation Yrotation Zrotation
								End Site
								{
									OFFSET	1	0	0
								}
							}
						}
					}
					JOINT left_clavicle
					{
						OFFSET	-43.2	22.4	-70.8
						CHANNELS 3  Xrotation Yrotation Zrotation
						JOINT left_shoulder
						{
							OFFSET	-93.9	-5.79999	48.7
							CHANNELS 3  Xrotation Yrotation Zrotation
							JOINT left_elbow
							{
								OFFSET	-291.4	-30.8	15.2
								CHANNELS 3  Xrotation Yrotation Zrotation
								JOINT left_lowarm_twist
								{
									OFFSET	-110.7	-3.89999	13.6
									CHANNELS 3  Xrotation Yrotation Zrotation
									JOINT left_hand
									{
										OFFSET	-110.7	-3.89999	13.6
										CHANNELS 3  Xrotation Yrotation Zrotation
										JOINT left_ee
										{
											OFFSET	-80.8	-5.10001	12.1
											CHANNELS 3  Xrotation Yrotation Zrotation
											End Site
											{
												OFFSET	1	0	0
											}
										}
									}
								}
							}
						}
					}
					JOINT right_clavicle
					{
						OFFSET	43.2	22.4	-70.8
						CHANNELS 3  Xrotation Yrotation Zrotation
						JOINT right_shoulder
						{
							OFFSET	93.9	-5.79999	48.7
							CHANNELS 3  Xrotation Yrotation Zrotation
							JOINT right_elbow
							{
								OFFSET	291.4	-30.8	15.2
								CHANNELS 3  Xrotation Yrotation Zrotation
								JOINT right_lowarm_twist
								{
									OFFSET	110.7	-3.89999	13.6
									CHANNELS 3  Xrotation Yrotation Zrotation
									JOINT right_hand
									{
										OFFSET	110.7	-3.89999	13.6
										CHANNELS 3  Xrotation Yrotation Zrotation
										JOINT right_ee
										{
											OFFSET	80.8	-5.10001	12.1
											CHANNELS 3  Xrotation Yrotation Zrotation
											End Site
											{
												OFFSET	1	0	0
											}
										}
									}
								}
							}
						}
					}
				}
			}
		}
	}
	JOINT left_hip
	{
		OFFSET	-82.8	-127.5	0.300001
		CHANNELS 3  Xrotation Yrotation Zrotation
		JOINT left_knee
		{
			OFFSET	-28.2	-396.7	2.2
			CHANNELS 3  Xrotation Yrotation Zrotation
			JOINT left_ankle
			{
				OFFSET	-11.7	-411.3	35.4
				CHANNELS 3  Xrotation Yrotation Zrotation
				JOINT left_toes
				{
					OFFSET	0	-60	-88.6
					CHANNELS 3  Xrotation Yrotation Zrotation
					JOINT left_foot_ee
					{
						OFFSET	-22.5	-16.5	-42.2
						CHANNELS 3  Xrotation Yrotation Zrotation
						End Site
						{
							OFFSET	1	0	0
						}
					}
				}
			}
		}
	}
	JOINT right_hip
	{
		OFFSET	82.8	-127.5	0.300001
		CHANNELS 3  Xrotation Yrotation Zrotation
		JOINT right_knee
		{
			OFFSET	28.2	-396.7	2.2
			CHANNELS 3  Xrotation Yrotation Zrotation
			JOINT right_ankle
			{
				OFFSET	11.7	-411.3	35.4
				CHANNELS 3  Xrotation Yrotation Zrotation
				JOINT right_toes
				{
					OFFSET	0	-60	-88.6
					CHANNELS 3  Xrotation Yrotation Zrotation
					JOINT right_foot_ee
					{
						OFFSET	22.5	-16.5	-42.2
						CHANNELS 3  Xrotation Yrotation Zrotation
						End Site
						{
							OFFSET	1	0	0
						}
					}
				}
			}
		}
	}
}
MOTION
Frames: 5
Frame Time: 0.02
2775.94 717.739 -784.767 158.441 -81.4544 156.745 0.218886 -0.390813 -0.941229 0.219318 -0.330131 -0.964187 0.2252 -0.124115 -1.01155 0.223883 -0.282305 -0.979257 -10.5665 10.8145 1.46148 -10.7106 19.4429 4.25181 -0.0 0.0 -0.0 5.27717 9.37173 10.3298 1.27312 -24.9053 56.2599 4.09918 -63.7627 2.55033 7.65107 0.206068 -0.95489 -3.01146 11.5078 -14.5316 -0.0 0.0 -0.0 4.98296 17.0781 -8.6462 -31.5226 18.1944 -63.342 0.505828 14.0673 -0.0624098 -8.73335 0.38829 -1.04574 1.95462 7.68867 -9.98192 0.0 0.0 0.0 -20.4445 -0.245348 9.55649 -4.07467 0.146189 0.608118 17.9039 23.2768 -2.56638 26.2905 -0.0 -0.0 -0.0 0.0 -0.0 28.6123 26.774 1.28772 -6.21519 -0.205548 -0.931236 -7.38014 -24.0709 -1.13701 -13.9774 0.0 0.0 0.0 0.0 0.0 
2809.95 715.144 -773.038 157.102 -82.3151 155.024 0.219898 -0.34464 -0.737854 0.220152 -0.296992 -0.758287 0.224293 -0.134148 -0.803246 0.223486 -0.259318 -0.771982 -8.74086 11.2695 2.16445 -8.80582 19.6209 4.74019 -0.0 0.0 -0.0 5.27981 10.7349 10.33 0.0706316 -24.1772 57.1547 3.9696 -63.027 2.43447 6.87711 0.191046 -0.857166 -3.01692 11.4449 -14.6016 -0.0 0.0 -0.0 4.70843 15.6641 -8.17138 -30.8213 18.7401 -64.9329 0.532408 14.7749 -0.0690295 -9.23847 0.415584 -1.10431 2.02025 7.48955 -10.5177 0.0 0.0 0.0 -21.394 -0.418389 9.68036 -5.44724 0.185642 0.815066 14.6821 23.7298 -2.13519 26.558 -0.0 -0.0 -0.0 0.0 -0.0 27.6902 27.1669 1.83146 -8.53581 -0.25621 -1.28372 -11.7872 -24.5874 -1.83109 -13.1682 0.0 0.0 0.0 0.0 0.0 
2838.64 719.597 -765.647 150.563 -83.2987 147.715 0.206337 -0.292405 -0.560022 0.206475 -0.256178 -0.577493 0.209185 -0.131347 -0.617957 0.208724 -0.227292 -0.58946 -7.10319 11.6205 2.57547 -7.09819 19.7707 4.95531 -0.0 0.0 -0.0 4.83311 11.8546 9.55767 -2.18803 -23.4222 57.6545 3.83773 -62.2381 2.31736 6.50026 0.183255 -0.809658 -3.02256 11.4616 -14.6296 -0.0 0.0 -0.0 4.52832 14.6888 -7.86419 -30.1216 19.1706 -66.0495 0.552429 15.3049 -0.074225 -9.59219 0.435004 -1.14517 2.06255 7.18005 -10.9411 0.0 0.0 0.0 -22.0376 -0.538249 9.75867 -6.41079 0.210369 0.960866 11.7827 24.4445 -1.73715 26.5575 -0.0 -0.0 -0.0 0.0 -0.0 26.4813 27.478 2.11841 -10.3723 -0.286156 -1.56392 -14.8954 -24.3171 -2.31786 -12.7216 0.0 0.0 0.0 0.0 0.0 
2857.17 720.342 -758.877 146.944 -83.9842 143.697 0.214638 -0.236359 -0.352424 0.214682 -0.213455 -0.36675 0.216103 -0.133129 -0.40292 0.21593 -0.195092 -0.376839 -5.88814 11.8884 2.83536 -5.83156 19.9 5.07582 -0.0 0.0 -0.0 4.52372 12.6293 9.03593 -4.12781 -22.9549 58.2278 3.72135 -61.5056 2.21472 6.24606 0.177822 -0.77764 -3.02347 11.5078 -14.6107 -0.0 0.0 -0.0 4.55143 14.1938 -7.95151 -29.1826 19.6167 -66.8676 0.570146 15.7716 -0.0789711 -9.85316 0.449495 -1.17525 2.0934 6.96017 -11.2475 0.0 0.0 0.0 -22.1995 -0.579289 9.51084 -7.09009 0.226325 1.06389 9.73991 25.0016 -1.44965 26.5305 -0.0 -0.0 -0.0 0.0 -0.0 25.5581 27.6889 2.34291 -11.6601 -0.30179 -1.7609 -16.9988 -24.0739 -2.64621 -12.4 0.0 0.0 0.0 0.0 0.0 
2884.81 724.008 -746.041 150.844 -83.7844 146.748 0.2989 -0.126833 -0.164658 0.298908 -0.116098 -0.172395 0.299269 -0.0782788 -0.192539 0.299234 -0.107704 -0.17776 -3.57183 11.657 1.7567 -3.42977 19.9328 3.5845 -0.0 0.0 -0.0 4.16082 13.1233 8.4324 -6.95536 -22.8731 58.6277 3.22428 -57.9368 1.78525 7.09505 0.19541 -0.884664 -2.87919 11.5775 -13.626 -0.0 0.0 -0.0 4.5808 15.026 -7.94948 -26.8216 20.3209 -66.8895 0.597767 16.495 -0.0866463 -10.0229 0.458992 -1.19477 2.13714 6.6921 -11.6634 0.0 0.0 0.0 -22.4074 -0.15959 7.99695 -7.57023 0.236865 1.13682 6.14306 26.7956 -0.933277 26.1759 -0.0 -0.0 -0.0 0.0 -0.0 24.6578 27.8555 2.57913 -12.6425 -0.310737 -1.91136 -18.3025 -20.8042 -2.81187 -12.6365 0.0 0.0 0.0 0.0 0.0 
